<svg xmlns="http://www.w3.org/2000/svg" version="1.1" xmlns:xlink="http://www.w3.org/1999/xlink" xmlns:svgjs="http://svgjs.com/svgjs" width="1440" height="560" preserveAspectRatio="none" viewBox="0 0 1440 560">
    <g mask="url(&quot;#SvgjsMask1146&quot;)" fill="none">
        <rect width="1440" height="560" x="0" y="0" fill="url(#SvgjsLinearGradient1147)"></rect>
        <g>
            <path d="M1402.5 280.5L1369.5 313.5L1336.5 313.5M1237.5 280.5L1204.5 247.5M1105.5 280.5L1072.5 313.5M1468.5 280.5L1435.5 280.5L1402.5 280.5L1369.5 280.5L1336.5 280.5L1303.5 280.5L1270.5 280.5L1237.5 280.5L1204.5 280.5L1171.5 280.5L1138.5 280.5L1105.5 280.5L1072.5 280.5L1039.5 280.5L1006.5 280.5" stroke="#3a7cc3" stroke-width="5.5"></path>
            <path d="M1001 280.5 a5.5 5.5 0 1 0 11 0 a5.5 5.5 0 1 0 -11 0zM1331 313.5 a5.5 5.5 0 1 0 11 0 a5.5 5.5 0 1 0 -11 0zM1199 247.5 a5.5 5.5 0 1 0 11 0 a5.5 5.5 0 1 0 -11 0zM1067 313.5 a5.5 5.5 0 1 0 11 0 a5.5 5.5 0 1 0 -11 0z" fill="#3a7cc3"></path>
            <path d="M1039.5 247.5L1006.5 214.5L973.5 214.5L940.5 247.5M1204.5 214.5L1171.5 214.5L1138.5 214.5L1105.5 214.5M1072.5 247.5L1039.5 214.5M1468.5 247.5L1435.5 247.5L1402.5 247.5L1369.5 247.5L1336.5 247.5L1303.5 247.5L1270.5 247.5L1237.5 214.5L1204.5 214.5L1171.5 247.5L1138.5 247.5L1105.5 247.5L1072.5 247.5L1039.5 247.5L1006.5 247.5" stroke="#dd1133" stroke-width="5.5"></path>
            <path d="M1001 247.5 a5.5 5.5 0 1 0 11 0 a5.5 5.5 0 1 0 -11 0zM935 247.5 a5.5 5.5 0 1 0 11 0 a5.5 5.5 0 1 0 -11 0zM1100 214.5 a5.5 5.5 0 1 0 11 0 a5.5 5.5 0 1 0 -11 0zM1034 214.5 a5.5 5.5 0 1 0 11 0 a5.5 5.5 0 1 0 -11 0z" fill="#dd1133"></path>
            <path d="M1468.5 313.5L1435.5 313.5" stroke="#dd1133" stroke-width="5.5"></path>
            <path d="M1430 313.5 a5.5 5.5 0 1 0 11 0 a5.5 5.5 0 1 0 -11 0z" fill="#dd1133"></path>
            <path d="M1303.5 214.5L1270.5 181.5M1006.5 181.5L973.5 148.5M940.5 181.5L907.5 148.5L874.5 148.5M1105.5 181.5L1072.5 148.5M1468.5 214.5L1435.5 214.5L1402.5 214.5L1369.5 214.5L1336.5 214.5L1303.5 214.5L1270.5 214.5L1237.5 181.5L1204.5 181.5L1171.5 181.5L1138.5 181.5L1105.5 181.5L1072.5 181.5L1039.5 181.5L1006.5 181.5L973.5 181.5L940.5 181.5L907.5 181.5" stroke="#3a7cc3" stroke-width="5.5"></path>
            <path d="M902 181.5 a5.5 5.5 0 1 0 11 0 a5.5 5.5 0 1 0 -11 0zM1265 181.5 a5.5 5.5 0 1 0 11 0 a5.5 5.5 0 1 0 -11 0zM968 148.5 a5.5 5.5 0 1 0 11 0 a5.5 5.5 0 1 0 -11 0zM869 148.5 a5.5 5.5 0 1 0 11 0 a5.5 5.5 0 1 0 -11 0zM1067 148.5 a5.5 5.5 0 1 0 11 0 a5.5 5.5 0 1 0 -11 0z" fill="#3a7cc3"></path>
            <path d="M1336.5 346.5L1303.5 346.5M1270.5 313.5L1237.5 346.5L1204.5 346.5M1171.5 346.5L1138.5 313.5M1468.5 346.5L1435.5 346.5L1402.5 346.5L1369.5 346.5L1336.5 346.5L1303.5 313.5L1270.5 313.5L1237.5 313.5L1204.5 313.5L1171.5 346.5L1138.5 346.5L1105.5 346.5L1072.5 346.5L1039.5 313.5" stroke="#dd1133" stroke-width="5.5"></path>
            <path d="M1034 313.5 a5.5 5.5 0 1 0 11 0 a5.5 5.5 0 1 0 -11 0zM1298 346.5 a5.5 5.5 0 1 0 11 0 a5.5 5.5 0 1 0 -11 0zM1199 346.5 a5.5 5.5 0 1 0 11 0 a5.5 5.5 0 1 0 -11 0zM1133 313.5 a5.5 5.5 0 1 0 11 0 a5.5 5.5 0 1 0 -11 0z" fill="#dd1133"></path>
            <path d="M1336.5 148.5L1303.5 181.5M1369.5 181.5L1336.5 181.5M1171.5 148.5L1138.5 148.5L1105.5 148.5M1468.5 181.5L1435.5 181.5L1402.5 181.5L1369.5 181.5L1336.5 148.5L1303.5 148.5L1270.5 148.5L1237.5 148.5L1204.5 148.5L1171.5 148.5L1138.5 115.5L1105.5 115.5L1072.5 115.5L1039.5 115.5L1006.5 115.5L973.5 115.5L940.5 115.5L907.5 115.5L874.5 115.5" stroke="#3a7cc3" stroke-width="5.5"></path>
            <path d="M869 115.5 a5.5 5.5 0 1 0 11 0 a5.5 5.5 0 1 0 -11 0zM1298 181.5 a5.5 5.5 0 1 0 11 0 a5.5 5.5 0 1 0 -11 0zM1331 181.5 a5.5 5.5 0 1 0 11 0 a5.5 5.5 0 1 0 -11 0zM1100 148.5 a5.5 5.5 0 1 0 11 0 a5.5 5.5 0 1 0 -11 0z" fill="#3a7cc3"></path>
            <path d="M1402.5 379.5L1369.5 412.5L1336.5 412.5L1303.5 412.5L1270.5 412.5L1237.5 412.5L1204.5 412.5L1171.5 412.5L1138.5 412.5M1039.5 379.5L1006.5 379.5L973.5 379.5L940.5 379.5L907.5 379.5M973.5 313.5L940.5 346.5L907.5 346.5L874.5 346.5L841.5 379.5L808.5 379.5L775.5 379.5L742.5 412.5M1006.5 346.5L973.5 346.5M1435.5 379.5L1402.5 412.5M1468.5 379.5L1435.5 379.5L1402.5 379.5L1369.5 379.5L1336.5 379.5L1303.5 379.5L1270.5 379.5L1237.5 379.5L1204.5 379.5L1171.5 379.5L1138.5 379.5L1105.5 379.5L1072.5 379.5L1039.5 379.5L1006.5 346.5L973.5 313.5L940.5 313.5L907.5 313.5L874.5 313.5L841.5 280.5" stroke="#dd1133" stroke-width="5.5"></path>
            <path d="M836 280.5 a5.5 5.5 0 1 0 11 0 a5.5 5.5 0 1 0 -11 0zM1133 412.5 a5.5 5.5 0 1 0 11 0 a5.5 5.5 0 1 0 -11 0zM902 379.5 a5.5 5.5 0 1 0 11 0 a5.5 5.5 0 1 0 -11 0zM737 412.5 a5.5 5.5 0 1 0 11 0 a5.5 5.5 0 1 0 -11 0zM968 346.5 a5.5 5.5 0 1 0 11 0 a5.5 5.5 0 1 0 -11 0zM1397 412.5 a5.5 5.5 0 1 0 11 0 a5.5 5.5 0 1 0 -11 0z" fill="#dd1133"></path>
            <path d="M1237.5 115.5L1204.5 82.5L1171.5 82.5M1303.5 115.5L1270.5 82.5L1237.5 82.5M775.5 82.5L742.5 115.5L709.5 115.5L676.5 115.5L643.5 115.5M841.5 82.5L808.5 115.5L775.5 115.5L742.5 148.5M1402.5 148.5L1369.5 115.5L1336.5 82.5M1468.5 148.5L1435.5 148.5L1402.5 148.5L1369.5 148.5L1336.5 115.5L1303.5 115.5L1270.5 115.5L1237.5 115.5L1204.5 115.5L1171.5 115.5L1138.5 82.5L1105.5 82.5L1072.5 82.5L1039.5 82.5L1006.5 82.5L973.5 82.5L940.5 82.5L907.5 82.5L874.5 82.5L841.5 82.5L808.5 82.5L775.5 82.5L742.5 82.5" stroke="#dd1133" stroke-width="5.5"></path>
            <path d="M737 82.5 a5.5 5.5 0 1 0 11 0 a5.5 5.5 0 1 0 -11 0zM1166 82.5 a5.5 5.5 0 1 0 11 0 a5.5 5.5 0 1 0 -11 0zM1232 82.5 a5.5 5.5 0 1 0 11 0 a5.5 5.5 0 1 0 -11 0zM638 115.5 a5.5 5.5 0 1 0 11 0 a5.5 5.5 0 1 0 -11 0zM737 148.5 a5.5 5.5 0 1 0 11 0 a5.5 5.5 0 1 0 -11 0zM1331 82.5 a5.5 5.5 0 1 0 11 0 a5.5 5.5 0 1 0 -11 0z" fill="#dd1133"></path>
        </g>
    </g>
    <defs>
        <mask id="SvgjsMask1146">
            <rect width="1440" height="560" fill="#ffffff"></rect>
        </mask>
        <linearGradient x1="84.72%" y1="139.29%" x2="15.28%" y2="-39.29%" gradientUnits="userSpaceOnUse" id="SvgjsLinearGradient1147">  
        </linearGradient>
    </defs>
</svg>