<svg xmlns="http://www.w3.org/2000/svg" version="1.1" xmlns:xlink="http://www.w3.org/1999/xlink" xmlns:svgjs="http://svgjs.com/svgjs" width="1440" height="560" preserveAspectRatio="none" viewBox="0 0 1440 560">
    <g mask="url(&quot;#SvgjsMask1014&quot;)" fill="none">
        <path d="M1439.58 216.26L1481.75 216.26L1481.75 229.17L1439.58 229.17z" stroke="rgba(255, 127, 0, 1)"></path>
        <path d="M1357.14 548.13 a2.46 2.46 0 1 0 4.92 0 a2.46 2.46 0 1 0 -4.92 0z" stroke="rgba(255, 0, 0, 1)"></path>
        <path d="M471.49 513.27a7.3 7.3 0 1 0 9.14 11.38z" fill="rgba(6, 90, 243, 1)"></path>
        <path d="M1155.24 434.06a40.57 40.57 0 1 0-12.29 80.2z" stroke="rgba(255, 0, 0, 1)"></path>
        <path d="M507.96 375.78L532.19 375.78L532.19 388.47L507.96 388.47z" stroke="rgba(255, 87, 34, 1)"></path>
        <path d="M761.68 112.12L780.16 112.12L780.16 123.81L761.68 123.81z" stroke="rgba(6, 90, 243, 1)"></path>
        <path d="M189.6 19.91L199.45 19.91L199.45 29.76L189.6 29.76z" fill="rgba(255, 0, 0, 1)"></path>
        <path d="M424.05 483.61 a45.06 45.06 0 1 0 90.12 0 a45.06 45.06 0 1 0 -90.12 0z" stroke="rgba(255, 0, 0, 1)"></path>
        <path d="M815.73 282.03L826.17 282.03L826.17 292.47L815.73 292.47z" stroke="rgba(255, 127, 0, 1)"></path>
        <path d="M958.42 400.08 a40.26 40.26 0 1 0 80.52 0 a40.26 40.26 0 1 0 -80.52 0z" stroke="rgba(6, 90, 243, 1)"></path>
        <path d="M717.42 363.37L728.45 363.37L728.45 364.41L717.42 364.41z" fill="rgba(6, 90, 243, 1)"></path>
        <path d="M183.93 239.24L208.1 239.24L208.1 259L183.93 259z" fill="rgba(255, 127, 0, 1)"></path>
        <path d="M353.25 130.53L386.43 130.53L386.43 163.71L353.25 163.71z" stroke="rgba(255, 87, 34, 1)"></path>
        <path d="M923.32 118.33L978.69 118.33L978.69 173.7L923.32 173.7z" fill="rgba(255, 0, 0, 1)"></path>
        <path d="M147.87 113.97L148.13 113.97L148.13 142.53L147.87 142.53z" stroke="rgba(255, 127, 0, 1)"></path>
        <path d="M83.54 296.01L125.78 296.01L125.78 336.33L83.54 336.33z" stroke="rgba(255, 127, 0, 1)"></path>
        <path d="M263.95 459.45L277.57 459.45L277.57 473.07L263.95 473.07z" stroke="rgba(255, 87, 34, 1)"></path>
        <path d="M24.01 275.72L51.32 275.72L51.32 303.03L24.01 303.03z" fill="rgba(6, 90, 243, 1)"></path>
        <path d="M1302.08 411.48L1337.09 411.48L1337.09 464.45L1302.08 464.45z" fill="rgba(255, 0, 0, 1)"></path>
        <path d="M1079.44 418.21a14.28 14.28 0 1 0 7.97-27.43z" stroke="rgba(6, 90, 243, 1)"></path>
        <path d="M1060.61 370.62L1115.34 370.62L1115.34 404.62L1060.61 404.62z" stroke="rgba(255, 0, 0, 1)"></path>
        <path d="M1306.24 222.9L1340.01 222.9L1340.01 256.67L1306.24 256.67z" fill="rgba(6, 90, 243, 1)"></path>
        <path d="M799.92 296.39L812.84 296.39L812.84 309.31L799.92 309.31z" fill="rgba(255, 127, 0, 1)"></path>
        <path d="M570.03 318.8L622.52 318.8L622.52 354.04L570.03 354.04z" stroke="rgba(255, 87, 34, 1)"></path>
        <path d="M261.13 167.27a48.86 48.86 0 1 0 96.78 13.5z" stroke="rgba(255, 127, 0, 1)"></path>
        <path d="M1071.1 308.44 a23.18 23.18 0 1 0 46.36 0 a23.18 23.18 0 1 0 -46.36 0z" fill="rgba(255, 0, 0, 1)"></path>
        <path d="M-23.51 519.16 a47.64 47.64 0 1 0 95.28 0 a47.64 47.64 0 1 0 -95.28 0z" stroke="rgba(6, 90, 243, 1)"></path>
        <path d="M1390.87 307.95a53.14 53.14 0 1 0-105.75 10.61z" fill="rgba(255, 0, 0, 1)"></path>
        <path d="M1173.78 411.94a7.67 7.67 0 1 0 14.4 5.3z" fill="rgba(6, 90, 243, 1)"></path>
        <path d="M114.51 290.25a34.72 34.72 0 1 0 44.54-53.27z" stroke="rgba(255, 0, 0, 1)"></path>
        <path d="M55.61 443.88L92.32 443.88L92.32 476.72L55.61 476.72z" stroke="rgba(255, 87, 34, 1)"></path>
        <path d="M1170.19 24.11L1199.59 24.11L1199.59 53.51L1170.19 53.51z" fill="rgba(255, 87, 34, 1)"></path>
        <path d="M282.19 199.29L318.71 199.29L318.71 235.81L282.19 235.81z" fill="rgba(255, 87, 34, 1)"></path>
    </g>
    <defs>
        <mask id="SvgjsMask1014">
            <rect width="1440" height="560" fill="#ffffff"></rect>
        </mask>
    </defs>
</svg>